<?xml version="1.0" encoding="utf-8"?>
<!-- Generator: Adobe Illustrator 18.0.0, SVG Export Plug-In . SVG Version: 6.00 Build 0)  -->
<!DOCTYPE svg PUBLIC "-//W3C//DTD SVG 1.1//EN" "http://www.w3.org/Graphics/SVG/1.1/DTD/svg11.dtd">
<svg version="1.1" id="Layer_1" xmlns="http://www.w3.org/2000/svg" xmlns:xlink="http://www.w3.org/1999/xlink" x="0px" y="0px"
	 viewBox="-128.1 401.6 160.2 146.3" style="enable-background:new -128.1 401.6 160.2 146.3;" xml:space="preserve">
<style type="text/css">
	.st0{fill:#2B2A29;}
	.st1{fill:#1E88E5;}
</style>
<path class="st0" d="M-34.6,529.1l48.6-121.1c1.8-4.3,4.4-6.4,7.9-6.4c3.5,0,6.1,0.9,7.7,2.7c1.6,1.8,2.5,3.7,2.5,5.8
	c0,2.1-0.2,3.6-0.6,4.5l-51,123.7c-2.9,6.3-7.2,9.5-12.8,9.5h-4.5c-5.7,0-9.9-3.1-12.8-9.5l-19.7-47.7h19.3L-34.6,529.1z"/>
<path class="st1" d="M-82.9,408.7L-82.9,408.7c-1.7-4.1-5.7-7-10.4-7c0,0-0.1,0-0.2,0h0H-119l0,0h0c-5.1,0-9.1,4.1-9.1,9.1
	s4.1,9.2,9.1,9.2c0,0,0,0,0,0l20.4,0l10.4,25.3l11.2,27.7h19.8L-82.9,408.7z"/>
</svg>
